{"accessors":[{"name":"Group123_1_positions","componentType":5126,"count":5343,"min":[-45.493980407714844,0.698303759098053,0.20282848179340363],"max":[-19.797306060791016,66.64777374267578,43.60549545288086],"type":"VEC3","bufferView":0,"byteOffset":0},{"name":"Group123_1_0_indices","componentType":5123,"count":32892,"min":[0],"max":[5342],"type":"SCALAR","bufferView":1,"byteOffset":0}],"asset":{"generator":"obj2gltf","version":"2.0"},"buffers":[{"name":"input","byteLength":129900,"uri":"data:application/octet-stream;base64,"}],"bufferViews":[{"name":"bufferView_0","buffer":0,"byteLength":64116,"byteOffset":0,"byteStride":12,"target":34962},{"name":"bufferView_1","buffer":0,"byteLength":65784,"byteOffset":64116,"target":34963}],"materials":[{"name":"default","pbrMetallicRoughness":{"baseColorFactor":[0.5,0.5,0.5,1],"metallicFactor":0,"roughnessFactor":1},"emissiveFactor":[0,0,0],"alphaMode":"OPAQUE","doubleSided":false}],"meshes":[{"name":"Group123_1","primitives":[{"attributes":{"POSITION":0},"indices":1,"material":0,"mode":4}]}],"nodes":[{"name":"Group123","mesh":0}],"scene":0,"scenes":[{"nodes":[0]}]}
